<svg width="800" height="360" viewBox="0 0 800 360" fill="none" xmlns="http://www.w3.org/2000/svg">
<path d="M196.121 159.539L206.797 262.28H564.423L544.851 123.975L493.253 50.8703L361.59 31.1123L253.057 68.6524L196.121 159.539Z" fill="#FAFF00"/>
<path d="M211.793 125.147V154.533L235.302 170.205L250.974 154.533V125.147L235.302 107.515L211.793 125.147Z" fill="#FF8A00"/>
<path d="M551.402 109.474L505.651 130.671V188.479L547.424 227.017L589.197 219.31L634.948 173.063L601.132 117.182L551.402 109.474Z" fill="#FDFF8A"/>
<path d="M498.538 42.8667L486.061 48.519V63.9345L497.453 74.2115L508.846 72.1561L521.323 59.8237L512.101 44.9221L498.538 42.8667Z" fill="#FDFF8A"/>
<path d="M24 195.979C24 181.898 31.5301 168.858 46.5903 156.859L74.1395 175.225C61.6505 183.061 55.406 191.387 55.406 200.203C55.406 203.876 56.6304 207.794 59.0793 211.957C61.6505 215.998 64.2218 220.038 66.793 224.079C69.3643 228.119 70.6499 231.915 70.6499 235.466C70.6499 249.914 60.6098 261.117 40.5295 269.076L33.3667 259.342C38.2643 256.648 41.6315 254.077 43.4681 251.628C45.4271 249.057 46.4066 246.241 46.4066 243.18C46.4066 240.119 45.2435 236.751 42.9171 233.078C40.5907 229.283 38.0195 225.854 35.2033 222.793C32.3872 219.61 29.8159 215.63 27.4896 210.855C25.1632 205.958 24 200.999 24 195.979Z" fill="black"/>
<path d="M95.9951 167.511C109.953 162.981 124.156 160.716 138.604 160.716C153.052 160.716 164.072 163.103 171.663 167.879C173.378 173.266 174.296 178.408 174.418 183.306C174.418 194.815 169.643 204.488 160.093 212.325C150.542 220.161 138.298 225.793 123.361 229.221L119.687 262.831L104.627 264.301L95.9951 167.511ZM145.4 187.714C145.4 180 142.278 174.245 136.033 170.45C134.319 170.45 132.115 170.817 129.421 171.552L124.279 218.936C130.891 215.263 136.033 210.549 139.706 204.794C143.502 199.04 145.4 193.346 145.4 187.714Z" fill="black"/>
<path d="M199.213 264.301L190.581 164.389L226.394 162.185L215.742 262.831L199.213 264.301Z" fill="black"/>
<path d="M337.142 162.92L330.53 262.28L317.123 264.484L268.269 183.857H267.167L267.534 262.28L252.658 263.015L256.698 164.389L293.063 162.185L319.511 237.302H320.613L322.082 163.654L337.142 162.92Z" fill="black"/>
<path d="M349.08 262.28L377.18 162.185L413.545 164.389L433.013 262.28L419.606 264.484L409.137 239.506L369.099 242.812L363.957 264.484L349.08 262.28ZM383.792 181.102L371.854 231.242L405.831 231.609L384.894 181.102H383.792Z" fill="black"/>
<path d="M556.25 264.484L534.761 184.592H533.476L517.13 262.28L503.539 264.484L471.031 190.469H470.113L467.541 262.28L452.665 263.015L459.644 164.389L496.009 162.92L511.253 234.731L528.884 162.185L565.249 164.389L569.841 262.28L556.25 264.484Z" fill="black"/>
<path d="M596.288 167.511C611.103 162.981 625 160.716 637.979 160.716C650.957 160.716 661.304 163.103 669.017 167.879C670.732 173.021 671.589 177.919 671.589 182.571C671.589 193.101 667.058 201.733 657.998 208.468C663.63 212.875 668.099 217.896 671.405 223.528C674.711 229.16 676.364 234.364 676.364 239.139C676.364 247.098 672.691 253.648 665.344 258.791C658.12 263.811 646.733 266.321 631.183 266.321C622.368 266.321 613.613 265.647 604.92 264.301L596.288 167.511ZM620.898 253.281C626.408 254.75 631.673 255.485 636.693 255.485C641.836 255.485 645.142 255.179 646.611 254.567C650.162 247.465 651.937 240.363 651.937 233.262C651.937 226.16 650.284 220.038 646.978 214.896C640.979 217.589 633.448 220.038 624.388 222.242L620.898 253.281ZM625.306 213.426C632.04 210.733 637.367 206.998 641.285 202.223C645.203 197.448 647.162 193.101 647.162 189.183C647.162 185.143 646.427 181.469 644.958 178.164C643.611 174.735 641.713 172.164 639.264 170.45C636.938 170.45 633.755 171.062 629.714 172.286L625.306 213.426Z" fill="black"/>
<path d="M691.608 262.28L719.708 162.185L756.073 164.389L775.541 262.28L762.134 264.484L751.665 239.506L711.627 242.812L706.484 264.484L691.608 262.28ZM726.32 181.102L714.382 231.242L748.359 231.609L727.422 181.102H726.32Z" fill="black"/>
<path d="M186.326 111.433L203.957 146.696L172.612 123.188L186.326 111.433Z" fill="black"/>
<path d="M229.425 111.433L219.63 146.696L237.261 123.188L256.852 103.597L286.237 87.9248L250.974 93.8019L229.425 111.433Z" fill="black"/>
<path d="M243.138 134.942L227.466 150.614L243.138 146.696H264.688L286.237 134.942L264.688 123.188L243.138 134.942Z" fill="black"/>
<path d="M219.63 93.8019L211.793 134.942L203.957 103.597L186.326 87.9248L203.957 80.0886L186.326 70.2933H211.793L219.63 93.8019Z" fill="black"/>
<path d="M153.022 93.8019L178.49 103.597L160.858 123.188L139.309 117.311L153.022 93.8019Z" fill="black"/>
<path d="M172.612 134.942L196.121 150.614H178.49L149.104 160.41L131.472 150.614L149.104 138.86L172.612 134.942Z" fill="black"/>
<path d="M117.759 103.597L139.309 93.8019L131.472 117.311L117.759 123.188V103.597Z" fill="black"/>
<path d="M282.319 107.515L270.565 103.597L297.992 93.8019L303.869 103.597L282.319 107.515Z" fill="black"/>
<path d="M186.326 44.8257L172.612 52.6619L178.49 62.4571L205.916 56.58L186.326 44.8257Z" fill="black"/>
<path d="M200.039 176.082H180.449L178.49 152.574L200.039 142.778L217.671 156.492L200.039 176.082Z" fill="#FF8A00"/>
<g opacity="0.2">
<path d="M207.875 304.912V296.14L231.384 291.461L247.057 296.14V304.912L231.384 310.175L207.875 304.912Z" fill="black"/>
<path d="M182.408 309.005L200.039 298.479L168.694 305.496L182.408 309.005Z" fill="black"/>
<path d="M225.507 309.005L215.711 298.479L233.343 305.496L252.933 311.344L282.319 316.023L247.056 314.268L225.507 309.005Z" fill="black"/>
<path d="M239.22 301.988L223.548 297.309L239.22 298.479H260.77L282.319 301.988L260.77 305.496L239.22 301.988Z" fill="black"/>
<path d="M215.711 314.268L207.875 301.988L200.039 311.344L182.408 316.023L200.039 318.362L182.408 321.286H207.875L215.711 314.268Z" fill="black"/>
<path d="M149.104 314.268L174.571 311.344L156.94 305.496L135.39 307.251L149.104 314.268Z" fill="black"/>
<path d="M168.694 301.988L192.203 297.309H174.571L145.186 294.385L127.554 297.309L145.186 300.818L168.694 301.988Z" fill="black"/>
<path d="M113.841 311.344L135.39 314.268L127.554 307.251L113.841 305.496V311.344Z" fill="black"/>
<path d="M278.401 310.175L266.647 311.344L294.074 314.268L299.951 311.344L278.401 310.175Z" fill="black"/>
<path d="M182.408 328.888L168.694 326.549L174.571 323.625L201.998 325.379L182.408 328.888Z" fill="black"/>
<path d="M196.121 289.707H176.531L174.572 296.725L196.121 299.649L213.753 295.555L196.121 289.707Z" fill="black"/>
<path d="M24.4717 291.127C24.4717 295.552 32.0091 299.65 47.0841 303.42L74.6601 297.649C62.159 295.187 55.9084 292.57 55.9084 289.8C55.9084 288.646 57.134 287.415 59.5852 286.106C62.159 284.837 64.7328 283.567 67.3065 282.297C69.8803 281.028 71.1672 279.835 71.1672 278.719C71.1672 274.179 61.1172 270.658 41.0173 268.157L33.8475 271.216C38.75 272.063 42.1204 272.871 43.9588 273.64C45.9197 274.448 46.9002 275.333 46.9002 276.295C46.9002 277.257 45.7359 278.315 43.4073 279.469C41.0786 280.662 38.5048 281.739 35.686 282.701C32.8671 283.702 30.2933 284.952 27.9646 286.453C25.636 287.992 24.4717 289.55 24.4717 291.127Z" fill="black"/>
<path d="M95.7903 294.196C109.762 295.619 123.979 296.331 138.441 296.331C152.903 296.331 163.934 295.581 171.533 294.08C173.248 292.388 174.168 290.772 174.29 289.233C174.29 285.616 169.51 282.576 159.951 280.114C150.391 277.651 138.135 275.881 123.183 274.804L119.718 262.28L104.431 263.781L95.7903 294.196ZM145.243 287.847C145.243 290.271 142.118 292.08 135.868 293.272C134.152 293.272 131.946 293.157 129.249 292.926L124.102 278.036C130.72 279.19 135.868 280.672 139.544 282.48C143.344 284.288 145.243 286.078 145.243 287.847Z" fill="black"/>
<path d="M199.109 263.781L190.468 295.177L226.317 295.87L215.712 262.28L199.109 263.781Z" fill="black"/>
<path d="M337.173 295.639L331.296 262.28L317.134 263.723L268.233 289.059H267.13V262.28H252.934L256.651 295.177L293.051 295.87L319.524 272.265H320.627L322.098 295.408L337.173 295.639Z" fill="black"/>
<path d="M348.927 262.28L377.25 295.87L413.651 295.177L433.166 262.28L419.717 263.723L409.238 271.572L369.161 270.533L364.014 263.723L348.927 262.28ZM383.868 289.925L371.919 274.169L405.929 274.054L384.971 289.925H383.868Z" fill="black"/>
<path d="M556.495 263.723L534.985 288.829H533.698L517.406 262.28L503.732 263.723L471.193 286.982H470.273L466.47 262.28H452.757L459.795 295.177L496.195 295.639L511.454 273.073L529.102 295.87L565.503 295.177L570.3 262.28L556.495 263.723Z" fill="black"/>
<path d="M596.572 295.979C611.402 297.402 625.312 298.114 638.304 298.114C651.295 298.114 661.651 297.364 669.373 295.863C671.089 294.247 671.947 292.708 671.947 291.246C671.947 287.937 667.412 285.225 658.342 283.108C663.98 281.723 668.454 280.146 671.763 278.376C675.072 276.606 676.726 274.971 676.726 273.47C676.726 270.969 673.05 268.911 665.696 267.295C658.465 265.717 647.067 264.929 631.502 264.929C622.677 264.929 613.914 265.14 605.212 265.564L596.572 295.979ZM621.207 269.026C626.722 268.565 631.992 268.334 637.017 268.334C642.164 268.334 645.474 268.43 646.944 268.622C650.498 270.854 652.276 273.086 652.276 275.317C652.276 277.549 650.621 279.473 647.312 281.088C641.306 280.242 633.769 279.473 624.7 278.78L621.207 269.026ZM625.619 281.55C632.36 282.397 637.691 283.57 641.613 285.071C645.535 286.571 647.496 287.937 647.496 289.168C647.496 290.438 646.76 291.592 645.29 292.631C643.942 293.709 642.042 294.516 639.591 295.055C637.262 295.055 634.075 294.863 630.031 294.478L625.619 281.55Z" fill="black"/>
<path d="M691.761 262.28L720.113 295.87L756.513 295.177L776 262.28L762.58 263.723L752.101 271.572L712.024 270.533L706.876 263.723L691.761 262.28ZM726.731 289.925L714.781 274.169L748.792 274.054L727.834 289.925H726.731Z" fill="black"/>
</g>
<path d="M301.191 145.9C303.823 145.9 306.348 145.441 308.767 144.523L310.052 148.609C308.032 149.252 305.966 149.574 303.854 149.574C301.742 149.574 299.859 149.344 298.206 148.885C296.584 148.426 295.329 147.829 294.441 147.094C294.012 144.982 293.814 142.901 293.844 140.85C293.844 136.656 294.625 132.861 296.186 129.463C297.778 126.034 299.599 123.647 301.65 122.3L308.904 126.892C305.445 129.096 302.69 131.912 300.64 135.34C298.619 138.768 297.609 142.197 297.609 145.625C298.681 145.809 299.874 145.9 301.191 145.9Z" fill="black"/>
<path d="M346.463 148.655L353.488 123.632L362.579 124.183L367.446 148.655L364.094 149.206L361.477 142.962L351.468 143.788L350.182 149.206L346.463 148.655ZM355.141 128.361L352.156 140.896L360.651 140.988L355.416 128.361H355.141Z" fill="black"/>
<path d="M406.428 132.08C406.428 128.56 408.311 125.3 412.076 122.3L418.963 126.892C415.841 128.851 414.28 130.932 414.28 133.136C414.28 134.054 414.586 135.034 415.198 136.075C415.841 137.085 416.484 138.095 417.127 139.105C417.769 140.115 418.091 141.064 418.091 141.952C418.091 145.564 415.581 148.365 410.561 150.354L408.77 147.921C409.994 147.247 410.836 146.605 411.295 145.992C411.785 145.35 412.03 144.645 412.03 143.88C412.03 143.115 411.739 142.273 411.158 141.355C410.576 140.406 409.933 139.549 409.229 138.784C408.525 137.988 407.882 136.993 407.301 135.799C406.719 134.575 406.428 133.335 406.428 132.08Z" fill="black"/>
<path d="M461.848 149.16L459.69 124.183L468.643 123.632L465.98 148.793L461.848 149.16Z" fill="black"/>
<path d="M531.593 123.815L529.94 148.655L526.589 149.206L514.375 129.05H514.1L514.191 148.655L510.472 148.839L511.482 124.183L520.574 123.632L527.185 142.411H527.461L527.828 123.999L531.593 123.815Z" fill="black"/>
<path d="M588.987 140.85C588.987 142.38 588.85 143.651 588.574 144.661C588.329 145.671 587.885 146.574 587.243 147.37C585.988 148.808 583.554 149.528 579.942 149.528C576.361 149.558 573.575 148.747 571.585 147.094C571.157 144.982 570.943 142.901 570.943 140.85C570.943 136.687 571.723 132.968 573.284 129.692C574.845 126.417 576.667 124.075 578.748 122.667C581.687 123.861 584.12 126.111 586.049 129.417C588.008 132.723 588.987 136.534 588.987 140.85ZM584.396 139.197C584.396 135.34 583.768 132.034 582.513 129.279C580.095 131.514 578.197 134.1 576.82 137.039C575.442 139.947 574.754 142.809 574.754 145.625C575.611 145.809 576.896 145.9 578.61 145.9C580.355 145.9 582.069 145.625 583.753 145.074C584.182 143.115 584.396 141.156 584.396 139.197Z" fill="black"/>
<g opacity="0.2">
<path d="M301.391 302.705C304.012 302.705 306.526 302.834 308.934 303.09L310.214 301.949C308.202 301.769 306.145 301.679 304.042 301.679C301.939 301.679 300.065 301.743 298.419 301.872C296.804 302 295.555 302.167 294.671 302.372C294.244 302.962 294.046 303.543 294.077 304.116C294.077 305.287 294.854 306.348 296.408 307.297C297.993 308.254 299.806 308.921 301.848 309.297L309.071 308.015C305.627 307.399 302.884 306.613 300.842 305.655C298.831 304.698 297.825 303.74 297.825 302.782C298.892 302.731 300.08 302.705 301.391 302.705Z" fill="black"/>
<path d="M346.466 301.936L353.46 308.926L362.512 308.772L367.357 301.936L364.02 301.782L361.414 303.526L351.449 303.295L350.169 301.782L346.466 301.936ZM355.106 307.605L352.134 304.103L360.592 304.078L355.38 307.605H355.106Z" fill="black"/>
<path d="M406.169 306.566C406.169 307.549 408.043 308.46 411.792 309.297L418.649 308.015C415.541 307.468 413.986 306.886 413.986 306.271C413.986 306.014 414.291 305.741 414.901 305.45C415.541 305.168 416.181 304.886 416.821 304.603C417.461 304.321 417.781 304.056 417.781 303.808C417.781 302.799 415.282 302.017 410.283 301.461L408.501 302.141C409.72 302.329 410.558 302.509 411.015 302.68C411.503 302.859 411.746 303.056 411.746 303.27C411.746 303.483 411.457 303.719 410.878 303.975C410.299 304.24 409.659 304.479 408.958 304.693C408.257 304.916 407.617 305.193 407.038 305.527C406.459 305.869 406.169 306.215 406.169 306.566Z" fill="black"/>
<path d="M461.347 301.795L459.198 308.772L468.113 308.926L465.461 301.897L461.347 301.795Z" fill="black"/>
<path d="M530.788 308.874L529.142 301.936L525.805 301.782L513.645 307.412H513.37L513.462 301.936L509.759 301.885L510.765 308.772L519.816 308.926L526.399 303.68H526.673L527.039 308.823L530.788 308.874Z" fill="black"/>
<path d="M587.931 304.116C587.931 303.689 587.794 303.334 587.52 303.052C587.276 302.769 586.834 302.517 586.194 302.295C584.944 301.893 582.522 301.692 578.925 301.692C575.36 301.684 572.586 301.91 570.605 302.372C570.179 302.962 569.965 303.543 569.965 304.116C569.965 305.279 570.742 306.318 572.297 307.233C573.851 308.147 575.664 308.802 577.737 309.195C580.662 308.861 583.085 308.233 585.005 307.31C586.956 306.386 587.931 305.322 587.931 304.116ZM583.36 304.578C583.36 305.655 582.735 306.579 581.485 307.348C579.078 306.724 577.188 306.001 575.817 305.181C574.445 304.368 573.76 303.569 573.76 302.782C574.613 302.731 575.893 302.705 577.6 302.705C579.337 302.705 581.043 302.782 582.72 302.936C583.146 303.483 583.36 304.031 583.36 304.578Z" fill="black"/>
</g>
</svg>
