<svg width="160" height="80" viewBox="0 0 160 80" fill="none" xmlns="http://www.w3.org/2000/svg">
<g clip-path="url(#clip0_6033_11)">
<path d="M57.5081 21.6756C56.4843 21.6756 55.46 21.9098 54.5541 22.3783C53.6875 22.8077 52.9786 23.5104 52.5453 24.3302H52.3483C52.427 23.159 52.5453 22.1831 52.5453 21.2071V15H49.0397V39.0087H52.5453V30.5763C52.5453 28.4292 52.8996 26.9067 53.6089 25.9308C54.0024 25.4623 54.5148 25.111 55.066 24.8767C55.6177 24.6425 56.248 24.5644 56.8385 24.6035C57.2718 24.5644 57.7444 24.6425 58.1777 24.8377C58.611 24.9938 58.9657 25.2671 59.2806 25.5794C59.9109 26.4383 60.187 27.4533 60.1079 28.5073V39.0087H63.6135V27.9998C63.4956 23.8227 61.4868 21.6756 57.5081 21.6756ZM117.813 21.6756C115.332 21.6756 113.402 22.4954 112.063 23.9789C110.723 25.5014 109.975 27.7265 109.975 30.4592C109.936 32.0989 110.29 33.6994 110.96 35.1829C111.511 36.4712 112.457 37.5642 113.638 38.306C114.859 39.0477 116.238 39.399 117.695 39.36C118.759 39.399 119.823 39.2429 120.807 38.8135C121.792 38.4231 122.698 37.7985 123.407 37.0177C124.746 35.4171 125.455 33.27 125.455 30.4202C125.455 27.7656 124.746 25.6185 123.407 24.0179C122.107 22.4563 120.216 21.6756 117.813 21.6756ZM117.813 36.4321C115.017 36.4321 113.599 34.4802 113.599 30.4592C113.52 28.9368 113.875 27.4533 114.584 26.087C115.214 25.111 116.277 24.5644 117.813 24.5644C120.61 24.5644 122.028 26.5164 122.028 30.4202C122.028 34.4021 120.61 36.4321 117.813 36.4321ZM30.0538 23.081C28.9903 22.105 27.4541 21.6756 25.2877 21.6756C24.303 21.6756 23.2788 21.7927 22.3335 22.0269C21.3094 22.2612 20.3246 22.6125 19.3793 23.081L20.561 25.6965C21.3094 25.3452 22.0577 25.0719 22.8061 24.7987C23.5939 24.5644 24.4211 24.4473 25.2483 24.4473C25.6422 24.4083 26.0755 24.4864 26.4694 24.6035C26.8633 24.7596 27.2178 24.9548 27.4935 25.2671C28.0056 25.9698 28.2813 26.8677 28.2025 27.7265V28.6244L25.2877 28.7025C22.688 28.7415 20.7973 29.21 19.5762 30.186C18.946 30.6545 18.4339 31.24 18.1188 31.9427C17.8037 32.6454 17.6461 33.4261 17.7249 34.1679C17.6855 34.8706 17.7643 35.5733 18.0006 36.2369C18.237 36.9006 18.5915 37.4862 19.1035 38.0327C19.6156 38.5012 20.2065 38.8525 20.8367 39.0868C21.4669 39.321 22.1759 39.399 22.8455 39.36C23.9091 39.399 24.9332 39.2039 25.9179 38.8135C26.8633 38.306 27.6904 37.5642 28.3207 36.6664H28.3994L29.1085 39.0868H31.59V27.5704C31.6688 25.5794 31.1567 24.0569 30.0538 23.081ZM28.2025 32.4502C28.2419 33.0358 28.1631 33.5823 27.9662 34.1288C27.7692 34.6754 27.4541 35.1438 27.0208 35.5733C26.1937 36.315 25.0908 36.7054 23.9484 36.6273C23.5939 36.6664 23.2394 36.6273 22.8849 36.5102C22.5304 36.3931 22.2153 36.2369 21.979 36.0027C21.7426 35.7685 21.5851 35.4952 21.4669 35.1829C21.3488 34.8706 21.3094 34.5583 21.3488 34.246C21.3094 33.7775 21.3882 33.309 21.5851 32.9187C21.782 32.4893 22.0971 32.1769 22.5304 31.9427C23.2394 31.3962 24.4999 31.1229 26.1149 31.0448L28.3207 30.9277C28.2025 31.3962 28.1631 31.9037 28.2025 32.4502ZM10.3985 19.3723C11.2651 19.3723 12.171 19.5285 12.9982 19.8017C13.8254 20.075 14.6132 20.3873 15.3616 20.7777L16.5039 17.5765C14.5738 16.6006 12.4467 16.1321 10.3197 16.1712C8.38963 16.1321 6.4989 16.6006 4.84457 17.5765C3.26898 18.5525 2.00852 19.9969 1.26012 21.6756C0.393552 23.6275 -0.0397324 25.6965 -0.000342916 27.8437C-0.000342916 31.5913 0.826838 34.4412 2.59936 36.4712C4.41128 38.5012 6.73525 39.4771 9.96517 39.4771C11.9346 39.4771 13.9435 39.1648 15.7948 38.5012V35.3C14.8889 35.5733 13.9829 35.8465 13.1163 36.0027C12.2104 36.1979 11.3438 36.276 10.4379 36.276C8.27143 36.276 6.6565 35.5733 5.59296 34.1288C4.41128 32.6844 3.78104 30.5763 3.78104 27.8046C3.78104 25.15 4.41128 23.081 5.59296 21.5585C6.14441 20.8168 6.8928 20.2702 7.75939 19.8798C8.54718 19.4894 9.45312 19.2942 10.3985 19.3723ZM44.6279 30.5763C43.722 29.9518 42.6978 29.4442 41.6737 29.0539C40.5708 28.7025 39.5073 28.195 38.5225 27.5314C38.2862 27.3752 38.1286 27.18 38.0105 26.9458C37.8923 26.7115 37.8135 26.4383 37.8135 26.2041C37.8135 25.15 38.7195 24.6035 40.6102 24.6035C42.1857 24.6816 43.6826 25.0719 45.1006 25.7356L46.2822 22.9639C44.5491 22.144 42.6978 21.7536 40.8072 21.7146C39.1528 21.6365 37.5378 22.066 36.1198 22.9639C35.5684 23.3542 35.1351 23.8227 34.8199 24.4473C34.5048 25.0329 34.3867 25.6965 34.426 26.3602C34.3867 27.4142 34.7412 28.4683 35.4108 29.2881C36.041 30.1079 37.3802 30.8106 39.2709 31.5913C40.0587 31.8646 40.8072 32.255 41.4768 32.6844C41.91 32.9187 42.3039 33.231 42.6584 33.5823C42.8948 33.8946 43.0523 34.246 43.0129 34.6364C43.0129 35.9637 41.9494 36.6664 39.783 36.6664C37.8923 36.6273 36.041 36.1588 34.3867 35.261V38.3841C36.041 39.1648 37.8529 39.5162 39.7042 39.4381C41.8707 39.4381 43.5644 39.0087 44.7461 38.1108C45.3369 37.6814 45.8096 37.0958 46.1247 36.4321C46.4399 35.7685 46.5976 35.0267 46.5578 34.3241C46.5578 33.5823 46.4006 32.8796 46.1247 32.1769C45.6914 31.5523 45.2188 31.0058 44.6279 30.5763ZM138.926 21.2462C138.966 22.2221 139.044 23.1981 139.202 24.174H139.005C138.454 23.3542 137.705 22.7296 136.839 22.3002C135.972 21.8708 134.987 21.6756 134.042 21.7146C133.097 21.6756 132.191 21.8708 131.324 22.3002C130.497 22.6906 129.749 23.3152 129.197 24.0569C128.015 25.5794 127.503 27.8046 127.503 30.6545C127.503 33.5043 128.055 35.6514 129.197 37.1348C129.749 37.8765 130.497 38.4621 131.324 38.8916C132.151 39.2819 133.097 39.4771 134.042 39.4381C135.027 39.4771 136.012 39.2429 136.878 38.8135C137.744 38.345 138.493 37.6814 139.005 36.8615H139.202L139.832 39.0868H142.511V15.039H139.005L138.926 21.2852V21.2462ZM139.084 31.0839C139.084 32.9187 138.729 34.3631 138.099 35.1829C137.705 35.6123 137.232 35.9637 136.681 36.1589C136.13 36.3541 135.539 36.4712 134.948 36.3931C134.396 36.4321 133.845 36.276 133.333 36.0417C132.821 35.7685 132.427 35.4171 132.112 34.9487C131.363 33.6214 131.048 32.0989 131.127 30.5763C131.048 29.0148 131.403 27.4923 132.112 26.126C132.388 25.6185 132.821 25.2281 133.333 24.9548C133.845 24.6816 134.396 24.5644 134.987 24.6035C136.405 24.6035 137.469 25.0329 138.138 25.9308C138.808 26.8287 139.123 28.3512 139.123 30.5763L139.084 31.0839ZM159.842 29.4052C159.842 26.9848 159.212 25.15 157.991 23.7056C157.321 23.0419 156.533 22.4954 155.667 22.144C154.8 21.7927 153.855 21.6365 152.87 21.6756C150.546 21.6756 148.655 22.4954 147.395 24.096C146.135 25.6965 145.425 27.9218 145.425 30.6935C145.425 33.4652 146.135 35.6123 147.592 37.0958C148.38 37.8766 149.325 38.5012 150.349 38.8916C151.374 39.2819 152.476 39.4771 153.619 39.399C154.603 39.399 155.588 39.321 156.573 39.1258C157.479 38.9696 158.345 38.6573 159.172 38.2279V35.3C158.306 35.7294 157.4 36.0417 156.494 36.276C155.588 36.4712 154.722 36.5492 153.816 36.5492C153.185 36.5883 152.555 36.4712 151.964 36.2369C151.374 36.0027 150.861 35.6514 150.389 35.1829C149.483 34.1288 149.049 32.7625 149.128 31.3571H160L159.842 29.4052ZM148.892 28.7025C148.892 27.5314 149.325 26.3992 150.074 25.5014C150.783 24.7987 151.728 24.4473 152.713 24.4473C153.697 24.4473 154.642 24.8377 155.352 25.5014C156.061 26.3992 156.415 27.5704 156.336 28.7025H148.892ZM82.5994 21.9489C81.6145 21.9098 80.5906 22.105 79.6848 22.4954C78.7784 22.8858 77.9516 23.5104 77.3213 24.2521C75.9821 25.7746 75.4697 27.9218 75.4697 30.6545C75.4304 32.255 75.7458 33.8166 76.3756 35.3C76.8487 36.5492 77.7153 37.6033 78.8575 38.306C80.2753 39.1648 81.9692 39.5552 83.6233 39.321C85.2778 39.0868 86.814 38.306 87.9169 37.0958C89.1775 35.5733 89.7685 33.4261 89.7685 30.6935C89.7685 28.0389 89.1382 25.8917 87.9169 24.2911C87.2866 23.5104 86.4593 22.9248 85.5534 22.5344C84.6082 22.105 83.6233 21.9098 82.5994 21.9489ZM86.7354 36.0808C85.8688 37.1739 84.5689 37.8765 83.1904 37.9937C81.8115 38.1498 80.3937 37.7204 79.2908 36.8615C78.9754 36.6273 78.7391 36.3541 78.5028 36.0808C77.5183 34.7535 77.085 32.9577 77.085 30.6545C77.085 28.3512 77.5183 26.5554 78.5028 25.2281C78.9754 24.6035 79.6057 24.135 80.3544 23.8227C81.0633 23.5104 81.8508 23.3542 82.6387 23.3933C83.4267 23.3542 84.2535 23.5104 84.9629 23.8617C85.6718 24.2131 86.3021 24.7206 86.7747 25.3843C87.7592 26.6335 88.1925 28.5073 88.1925 30.8106C88.3502 32.6454 87.8383 34.5193 86.7354 36.0808ZM102.451 19.3723C103.318 19.3723 104.224 19.5285 105.051 19.8017C105.839 20.075 106.627 20.3873 107.375 20.7777L108.636 17.6546C106.706 16.6787 104.579 16.2102 102.412 16.2492C100.482 16.1712 98.5916 16.6787 96.937 17.6546C95.3615 18.6306 94.1009 20.075 93.3527 21.7536C92.4861 23.7056 92.0922 25.7746 92.0922 27.9218C92.0922 31.6694 92.8801 34.5193 94.6919 36.5492C96.3858 38.6183 98.8279 39.5942 102.058 39.5942C104.027 39.5942 106.036 39.2819 107.887 38.6183V35.4171C106.981 35.6904 106.076 35.9637 105.209 36.1198C104.303 36.315 103.436 36.3931 102.531 36.3931C100.364 36.3931 98.7493 35.6904 97.6857 34.246C96.6221 32.8016 95.9918 30.6935 95.9918 27.9218C95.9918 25.15 96.6221 23.1981 97.8036 21.6756C98.316 20.9339 99.0249 20.3092 99.8521 19.9188C100.64 19.4894 101.546 19.2942 102.451 19.3723ZM69.6011 37.1739C69.0887 36.315 68.8917 35.3 68.9708 34.3241V23.6275H73.7763V22.3002H69.0101V18.2012H68.3012L67.5132 22.0269L65.0711 22.7296V23.6275H67.5132V34.5193C67.5132 36.1979 67.8679 37.4471 68.4977 38.2669C69.128 39.0867 70.1916 39.4381 71.6491 39.4381C72.4764 39.4771 73.343 39.321 74.1305 39.0868V37.8375C73.343 38.0327 72.5157 38.1108 71.6885 38.1108C71.2945 38.1498 70.9005 38.0718 70.5463 37.9156C70.1523 37.7204 69.8374 37.4862 69.6011 37.1739Z" fill="#1EA0DB"/>
<path d="M53.9242 65.0865L49.04 50.0957H52.0333L54.0819 56.8884C54.6729 58.7622 55.1455 60.5189 55.5788 62.3537H55.6181C56.0121 60.558 56.5633 58.7622 57.1543 56.9274L59.36 50.0957H62.314L57.0752 65.0865H53.9242Z" fill="#1EA0DB"/>
<path d="M73.3827 59.5819C73.3827 63.5638 70.5466 65.3595 67.7892 65.3595C64.6775 65.3595 62.314 63.2518 62.314 59.7771C62.314 56.2247 64.6775 54.0385 67.9862 54.0385C71.1769 53.9994 73.3827 56.2637 73.3827 59.5819ZM65.1501 59.699C65.1501 61.8073 66.1744 63.3687 67.8682 63.3687C69.4437 63.3687 70.5466 61.846 70.5466 59.66C70.5466 57.9814 69.7984 56.0294 67.9076 56.0294C65.9381 56.0294 65.1501 57.9033 65.1501 59.699Z" fill="#1EA0DB"/>
<path d="M85.3965 61.8465C85.3965 63.1344 85.4358 64.1885 85.4751 65.0865H83.0331L82.9151 63.4469H82.8754C82.4028 64.2276 81.3392 65.3208 79.3697 65.3208C77.3609 65.3208 75.5491 64.1493 75.5491 60.597V54.2338H78.3066V60.1285C78.3066 61.9243 78.8971 63.0953 80.3547 63.0953C81.4576 63.0953 82.1665 62.3146 82.4819 61.6122C82.5605 61.3779 82.6391 61.0653 82.6391 60.7532V54.2338H85.3965V61.8465Z" fill="#1EA0DB"/>
<path d="M96.4255 64.774C95.835 65.0474 94.6923 65.3208 93.3138 65.3208C89.8867 65.3208 87.681 63.1735 87.681 59.8162C87.681 56.5761 89.9265 54.0386 93.7471 54.0386C94.7714 54.0386 95.7952 54.2728 96.4255 54.5461L95.9136 56.5761C95.4803 56.3809 94.8107 56.1467 93.8257 56.1467C91.699 56.1467 90.4777 57.6691 90.4777 59.6601C90.4777 61.8852 91.9353 63.1344 93.8257 63.1344C94.7714 63.1344 95.4803 62.9392 95.9922 62.7049L96.4255 64.774Z" fill="#1EA0DB"/>
<path d="M98.4735 49.3149H101.27V55.7562H101.31C101.664 55.2487 102.098 54.8193 102.688 54.507C103.24 54.1947 103.87 53.9995 104.579 53.9995C106.43 53.9995 108.4 55.2097 108.4 58.6841V65.0474H105.643V58.9574C105.643 57.3958 105.052 56.1856 103.515 56.1856C102.452 56.1856 101.664 56.8883 101.389 57.7082C101.31 57.9424 101.27 58.2156 101.27 58.528V65.0083H98.4735V49.3149Z" fill="#1EA0DB"/>
<path d="M113.245 60.4408C113.324 62.3929 114.86 63.2518 116.593 63.2518C117.853 63.2518 118.799 63.0562 119.626 62.7441L120.02 64.618C119.074 65.0083 117.774 65.2817 116.199 65.2817C112.654 65.2817 110.567 63.1344 110.567 59.8162C110.567 56.8102 112.418 53.9995 115.923 53.9995C119.468 53.9995 120.65 56.8883 120.65 59.2696C120.65 59.7772 120.61 60.1676 120.571 60.4408H113.245ZM118.05 58.5279C118.09 57.5129 117.617 55.8733 115.766 55.8733C114.072 55.8733 113.324 57.3958 113.245 58.5279H118.05Z" fill="#1EA0DB"/>
<path d="M122.895 57.7472C122.895 56.2638 122.856 55.2487 122.816 54.2728H125.219L125.298 56.3418H125.377C125.928 54.8193 127.188 54.0386 128.37 54.0386C128.646 54.0386 128.804 54.0776 129.04 54.1166V56.6932C128.804 56.6541 128.567 56.6151 128.213 56.6151C126.874 56.6151 126.007 57.474 125.731 58.6841C125.692 58.9184 125.652 59.2307 125.652 59.543V65.1643H122.895V57.7472Z" fill="#1EA0DB"/>
<path d="M50.9309 65.6329H37.302L31.7874 49.7443H45.4162L50.9309 65.6329ZM44.8647 58.4499C44.9041 58.2547 44.9435 57.9814 44.9435 57.591C44.9435 55.8343 44.0769 53.7262 41.4772 53.7262C38.9169 53.7262 37.5777 55.7953 37.5777 57.9814C37.5777 60.4018 39.1139 62.0025 41.7136 62.0025C42.8559 62.0025 43.8012 61.8074 44.5102 61.4948L44.1951 60.1285C43.6042 60.3627 42.8953 60.4799 41.9893 60.4799C40.6894 60.4799 39.5865 59.8552 39.5078 58.4108H44.8647V58.4499ZM39.5078 57.0445C39.5865 56.2247 40.0986 55.0926 41.3591 55.0926C42.6983 55.0926 43.0528 56.3027 43.0134 57.0445H39.5078Z" fill="#1EA0DB"/>
</g>
<defs>
<clipPath id="clip0_6033_11">
<rect width="160" height="80" fill="white"/>
</clipPath>
</defs>
</svg>
